<?xml version="1.0" encoding="utf-8"?>
<!-- Generator: Adobe Illustrator 22.0.1, SVG Export Plug-In . SVG Version: 6.00 Build 0)  -->
<svg version="1.1" id="Logo_FIXED" xmlns="http://www.w3.org/2000/svg" xmlns:xlink="http://www.w3.org/1999/xlink" x="0px" y="0px"
	 viewBox="0 0 72 72" style="enable-background:new 0 0 72 72;" xml:space="preserve">
<style type="text/css">
	.st0{fill:#FFFFFF;}
</style>
<title>Twitter_Logo_Blue</title>
<path class="st0" d="M22.6,65.3c27.2,0,42-22.5,42-42c0-0.6,0-1.3,0-1.9c2.9-2.1,5.4-4.7,7.4-7.6c-2.7,1.2-5.6,2-8.5,2.3
	c3.1-1.8,5.4-4.7,6.5-8.2c-2.9,1.7-6.1,2.9-9.4,3.6c-5.6-5.9-15-6.2-20.9-0.6c-3.8,3.6-5.5,9-4.3,14.1C23.6,24.3,12.5,18.7,5,9.5
	c-3.9,6.7-1.9,15.4,4.6,19.7c-2.4-0.1-4.7-0.7-6.7-1.8c0,0.1,0,0.1,0,0.2c0,7,5,13.1,11.9,14.5c-2.2,0.6-4.5,0.7-6.7,0.3
	c1.9,6,7.5,10.1,13.8,10.3c-5.2,4.1-11.7,6.3-18.3,6.3c-1.2,0-2.3-0.1-3.5-0.2C6.8,63,14.6,65.3,22.6,65.3"/>
</svg>
