<svg id="Layer_1" data-name="Layer 1" xmlns="http://www.w3.org/2000/svg" viewBox="0 0 944 64"><defs><style>.cls-1{fill:#231f20;}</style></defs><title>juliastrandjohnston-nameplate</title><path class="cls-1" d="M32.8,6.74h6.05V43.68C38.85,52.1,33.31,58,24,58c-8.35,0-13.11-7.27-13.11-7.27l4.4-3.82s3,5.33,8.71,5.33c6.77,0,8.78-4.61,8.78-8.5Z"/><path class="cls-1" d="M84.93,6.74h6V38.57C91,50,84.14,58,72.62,58S54.26,50,54.26,38.57V6.74h6.05V37.92c0,8.14,3.6,14.33,12.31,14.33s12.31-6.19,12.31-14.33Z"/><path class="cls-1" d="M106.39,6.74h6V51.38H135v5.76H106.39Z"/><path class="cls-1" d="M146.13,6.74h6.05v50.4h-6.05Z"/><path class="cls-1" d="M183.07,6.74h5.61l19.66,50.4H202l-5.25-13.61H175l-5.26,13.61h-6.48Zm-5.84,31h17.28l-8.64-22.39Z"/><path class="cls-1" d="M255.57,34.46c-7.35-3.38-13.83-6.77-13.83-15.34,0-5.9,4.9-13.24,14.55-13.24a18,18,0,0,1,14.33,7.34l-4.54,3.67s-3.53-5.25-9.79-5.25c-5.55,0-8.5,3.88-8.5,7.48,0,5.12,4.32,7.13,11.24,10.3,7.7,3.53,12.52,6.77,12.52,14.91S264.79,58,255.93,58c-12,0-16.06-10.51-16.06-10.51l5-3s3,7.78,11,7.78c4.82,0,9.43-2.74,9.43-7.92S261.19,37.05,255.57,34.46Z"/><path class="cls-1" d="M294.38,12.5H279.9V6.74h35V12.5H300.42V57.14h-6Z"/><path class="cls-1" d="M325.41,6.74h13.1c10,0,16.85,5.9,16.85,14.91,0,12-10.87,14.18-12.31,14.4l14,21.09h-7.28l-13.6-20.59h-4.68V57.14h-6Zm23.9,14.91c0-5.55-3.67-9.15-10.44-9.15h-7.41V30.79h7.41C345.64,30.79,349.31,27.19,349.31,21.65Z"/><path class="cls-1" d="M375.09,6.74l27,40.32V6.74h6.05v50.4h-6.27l-27-40.32V57.14h-6.05V6.74Z"/><path class="cls-1" d="M438,6.74h5.61l19.66,50.4H457L451.7,43.53H430l-5.26,13.61h-6.48Zm-5.84,31h17.28l-8.64-22.39Z"/><path class="cls-1" d="M512.75,31.94c0,14.55-9.29,25.2-24.91,25.2H473.37V6.74h14.47C503.46,6.74,512.75,17.4,512.75,31.94Zm-6.48,0c0-10.73-6.48-19.44-18.79-19.44h-8.07V51.38h8.07C499.79,51.38,506.27,42.67,506.27,31.94Z"/><path class="cls-1" d="M565,6.74h6.05V43.68c0,8.42-5.54,14.33-14.83,14.33-8.35,0-13.11-7.27-13.11-7.27l4.39-3.82s3,5.33,8.72,5.33c6.77,0,8.78-4.61,8.78-8.5Z"/><path class="cls-1" d="M633.14,31.94c0,14.55-10.37,26.07-24.92,26.07s-24.91-11.52-24.91-26.07S593.68,5.88,608.22,5.88,633.14,17.4,633.14,31.94Zm-6.48,0c0-10.73-7.42-20.3-18.44-20.3s-18.43,9.57-18.43,20.3,7.42,20.31,18.43,20.31S626.66,42.67,626.66,31.94Z"/><path class="cls-1" d="M676.7,6.74h6v50.4h-6v-23H651.42v23h-6V6.74h6V28.41H676.7Z"/><path class="cls-1" d="M704.41,6.74l27,40.32V6.74h6.05v50.4H731.2l-27-40.32V57.14h-6.05V6.74Z"/><path class="cls-1" d="M766.26,34.46c-7.34-3.38-13.82-6.77-13.82-15.34,0-5.9,4.89-13.24,14.54-13.24a17.93,17.93,0,0,1,14.33,7.34l-4.54,3.67s-3.52-5.25-9.79-5.25c-5.54,0-8.5,3.88-8.5,7.48,0,5.12,4.32,7.13,11.24,10.3,7.7,3.53,12.53,6.77,12.53,14.91S775.48,58,766.62,58c-12,0-16.06-10.51-16.06-10.51l5-3s3,7.78,11,7.78c4.83,0,9.43-2.74,9.43-7.92S771.88,37.05,766.26,34.46Z"/><path class="cls-1" d="M805.07,12.5H790.59V6.74h35V12.5H811.12V57.14h-6Z"/><path class="cls-1" d="M881.18,31.94c0,14.55-10.37,26.07-24.92,26.07s-24.91-11.52-24.91-26.07S841.72,5.88,856.26,5.88,881.18,17.4,881.18,31.94Zm-6.49,0c0-10.73-7.41-20.3-18.43-20.3s-18.43,9.57-18.43,20.3,7.41,20.31,18.43,20.31S874.69,42.67,874.69,31.94Z"/><path class="cls-1" d="M899.68,6.74l27,40.32V6.74h6.05v50.4h-6.27l-27-40.32V57.14h-6.05V6.74Z"/></svg>